<svg width="512" height="512" viewBox="0 0 512 512" fill="none" xmlns="http://www.w3.org/2000/svg">
<circle cx="256" cy="256" r="256" fill="white"/>
<path d="M414.2 96.6251H402.646C392.335 82.9652 376.126 74 357.7 74C326.498 74 301.2 99.3259 301.2 130.563V145.396L38.5386 352.267C35.888 354.256 33.7365 356.836 32.2545 359.803C30.7725 362.769 30.0006 366.039 30 369.356C30 385.236 46.6957 395.566 60.8843 388.467L146.722 345.501H214.868L246.233 430.415C247.836 434.82 252.695 437.09 257.095 435.485L273.021 429.68C277.421 428.075 279.688 423.211 278.084 418.806L251.014 345.501H278.6C279.949 345.501 281.256 345.338 282.597 345.296L314.033 430.408C315.636 434.813 320.495 437.083 324.895 435.478L340.821 429.673C345.221 428.068 347.488 423.204 345.884 418.799L316.759 339.943C373.054 323.441 414.2 271.446 414.2 209.75V153.188L482 141.875C482 116.882 451.645 96.6251 414.2 96.6251ZM357.7 147.531C348.342 147.531 340.75 139.931 340.75 130.563C340.75 121.187 348.342 113.594 357.7 113.594C367.058 113.594 374.65 121.187 374.65 130.563C374.65 139.931 367.058 147.531 357.7 147.531Z" fill="black"/>
</svg>
