<svg width="512" height="512" viewBox="0 0 512 512" fill="none" xmlns="http://www.w3.org/2000/svg">
<path d="M56.12 395H98.36V296.12C98.36 273.72 94.84 240.76 92.28 218.36H93.56L112.76 274.04L149.24 373.88H176.44L212.92 274.04L232.44 218.36H234.04C231.48 240.76 227.64 273.72 227.64 296.12V395H270.84V158.2H218.36L179 269.24C174.2 283.96 170.04 299.32 164.6 314.68H163.32C158.2 299.32 154.04 283.96 148.6 269.24L108.28 158.2H56.12V395ZM403.173 399.48C425.253 399.48 447.653 392.12 465.253 379.96L449.573 350.84C436.453 358.84 423.653 363.32 409.253 363.32C382.693 363.32 363.493 348.28 359.333 318.84H470.053C471.013 314.36 471.973 306.04 471.973 297.08C471.973 247.48 446.693 211.64 397.093 211.64C354.853 211.64 313.893 247.48 313.893 305.72C313.893 364.92 352.933 399.48 403.173 399.48ZM358.693 287.48C362.533 261.24 379.173 247.8 398.053 247.8C421.093 247.8 431.973 263.16 431.973 287.48H358.693Z" fill="url(#paint0_linear_1105_57)"/>
<defs>
<linearGradient id="paint0_linear_1105_57" x1="486" y1="253.011" x2="27" y2="253.011" gradientUnits="userSpaceOnUse">
<stop stop-color="#69B5D5"/>
<stop offset="1" stop-color="#E86560"/>
</linearGradient>
</defs>
</svg>
