<svg width="1024" height="1024" viewBox="0 0 1024 1024" fill="none" xmlns="http://www.w3.org/2000/svg">
<g clip-path="url(#clip0_905_9)">
<rect width="1024" height="1024" fill="white"/>
<rect width="1024" height="1024" fill="#EA6283"/>
<path d="M234.125 598.25H222.5L222.875 505.625C224.625 485.625 232.125 471.875 245.375 464.375C250.125 461.875 254.875 460.625 259.625 460.625C273.625 460.625 282.5 468 286.25 482.75C287.5 487.25 288.125 492.25 288.125 497.75V578C288.125 588.5 285.25 594.75 279.5 596.75C276.75 597.75 272.75 598.25 267.5 598.25V608H353.375C353.375 602.5 351.75 599.375 348.5 598.625C347 598.375 345.5 598.25 344 598.25H329.375V503.375C329.375 473.875 319.125 454.875 298.625 446.375C292.125 443.625 285.125 442.25 277.625 442.25C259.625 442.25 244.375 449.375 231.875 463.625C227.875 468.375 224.625 473.375 222.125 478.625L220.25 447.5H157.25V456.875H181.25V578C181.25 589 177.125 595.375 168.875 597.125C165.625 597.875 161.75 598.25 157.25 598.25V608H243.5C243.5 602.5 241.875 599.375 238.625 598.625C237.125 598.375 235.625 598.25 234.125 598.25ZM454.625 452C470.125 452 479.375 461.125 482.375 479.375C483.125 483.375 483.5 487.5 483.5 491.75C483.5 503.5 479.25 510.875 470.75 513.875C465.25 515.375 457.25 516 446.75 515.75L417.875 514.625C418.875 479.125 428.25 458.625 446 453.125C449 452.375 451.875 452 454.625 452ZM523.25 570.125L514.25 567.125C507 582.875 495.5 593.25 479.75 598.25C474.5 600 469.125 600.875 463.625 600.875C434.375 600.875 419.125 576 417.875 526.25C417.875 526 417.875 525.75 417.875 525.5L455.75 526.25C493.25 527 515.75 521.625 523.25 510.125C525.75 506.125 527 501.375 527 495.875C527 476.125 517 461.25 497 451.25C484.5 445.25 470.375 442.25 454.625 442.25C425.875 442.25 403.875 452.625 388.625 473.375C377.875 488.125 372.5 506 372.5 527C372.5 561.25 385.125 585.75 410.375 600.5C423.875 608 439 611.75 455.75 611.75C484.25 611.75 504.875 601.625 517.625 581.375C519.875 577.625 521.75 573.875 523.25 570.125ZM683 611.75C700.75 611.75 711.75 604.75 716 590.75C717.25 585.75 718.125 579.75 718.625 572.75L708.875 572.375C707.375 589.875 702.875 598.75 695.375 599C689.625 598.5 686.75 592.25 686.75 580.25V501.5C686.75 469.25 671.5 450.125 641 444.125C634.75 442.875 628.125 442.25 621.125 442.25C589.625 442.25 569.25 449.25 560 463.25C557.25 467.25 555.875 471.5 555.875 476C555.875 484.5 559.875 490 567.875 492.5C570.125 493.25 572.375 493.625 574.625 493.625C583.625 493.625 589.875 489 593.375 479.75C593.875 478.5 594.625 476.375 595.625 473.375C598.625 463.125 602.5 456.75 607.25 454.25C610.5 452.75 614.125 452 618.125 452C633.125 452 641.875 460.875 644.375 478.625C644.875 482.625 645.125 487 645.125 491.75V515.75C579.625 516.75 546.75 533.875 546.5 567.125C546.5 588.625 555.875 602.5 574.625 608.75C580.625 610.75 587.125 611.75 594.125 611.75C613.875 611.75 629.25 604.75 640.25 590.75C643.25 586.5 645.625 582.125 647.375 577.625C651.375 600.125 663.25 611.5 683 611.75ZM611.375 596C597.375 596 589.875 586 588.875 566C588.875 564.75 588.875 563.5 588.875 562.25C588.875 545.25 597.375 534.5 614.375 530C622.375 527.75 632.625 526.5 645.125 526.25V560.375C640.875 577.375 632.875 588.5 621.125 593.75C617.625 595.25 614.375 596 611.375 596ZM822.125 598.25H794.75V516.875C796.5 492.875 803.25 476.75 815 468.5C817.75 466.75 820.125 465.875 822.125 465.875C825.375 465.875 828.625 468.75 831.875 474.5C836.125 482.5 840.625 487.25 845.375 488.75C847.625 489.5 850 489.875 852.5 489.875C861.5 489.875 867.875 485.5 871.625 476.75C872.875 474 873.5 471.125 873.5 468.125C873.5 456.125 867.625 448.625 855.875 445.625C852.875 444.875 849.875 444.5 846.875 444.5C831.625 444.5 818 450.75 806 463.25C800.75 469 796.625 475.5 793.625 482.75L791.375 447.5H729.5V456.875H753.125V578C753.125 588.75 749.375 595.125 741.875 597.125C738.625 597.875 734.5 598.25 729.5 598.25V608H831.125C831.125 602.25 829.25 599.125 825.5 598.625C824.5 598.375 823.375 598.25 822.125 598.25Z" fill="white"/>
</g>
<defs>
<clipPath id="clip0_905_9">
<rect width="1024" height="1024" fill="white"/>
</clipPath>
</defs>
</svg>
